<mxfile host="app.diagrams.net" modified="2024-03-14T04:23:19.901Z" agent="Mozilla/5.0 (Windows NT 10.0; Win64; x64) AppleWebKit/537.36 (KHTML, like Gecko) Chrome/122.0.0.0 Safari/537.36 Edg/122.0.0.0" version="24.0.5" etag="3CW1mPu6QSoR4XmhM5ID" type="github">
  <diagram name="第 1 页" id="gDgN7H731Hi8wFHDhj4w">
    <mxGraphModel>
      <root>
        <mxCell id="0" />
        <mxCell id="1" parent="0" />
      </root>
    </mxGraphModel>
  </diagram>
</mxfile>
